<?xml version="1.0" standalone="no"?>
<!DOCTYPE svg PUBLIC "-//W3C//DTD SVG 20010904//EN"
 "http://www.w3.org/TR/2001/REC-SVG-20010904/DTD/svg10.dtd">
<svg version="1.0" xmlns="http://www.w3.org/2000/svg"
 width="316.000000pt" height="316.000000pt" viewBox="0 0 316.000000 316.000000"
 preserveAspectRatio="xMidYMid meet">
<metadata>
Created by potrace 1.11, written by Peter Selinger 2001-2013
</metadata>
<g transform="translate(0.000000,316.000000) scale(0.100000,-0.100000)"
fill="#000000" stroke="none">
<path d="M1693 2142 l-113 -113 -98 98 c-54 54 -106 104 -115 112 -15 12 -84
-53 -687 -657 -369 -368 -670 -671 -670 -674 0 -2 74 -4 165 -3 l165 0 508
508 508 508 28 -30 29 -30 -476 -476 c-262 -261 -475 -476 -474 -476 1 -1 75
-2 165 -3 l162 -2 57 58 57 58 58 -57 58 -58 165 0 c162 -1 164 -1 147 19 -9
10 -72 74 -139 141 l-122 122 29 28 28 27 169 -169 170 -168 161 0 c89 0 162
2 162 5 0 3 -111 116 -247 253 l-248 247 31 29 31 29 236 -236 c129 -131 256
-257 281 -282 l47 -45 164 0 c90 -1 163 0 162 2 -1 2 -165 166 -364 366 l-363
363 30 29 31 29 394 -394 395 -395 164 0 c162 0 164 0 148 19 -9 11 -223 226
-476 478 l-459 459 29 30 28 30 508 -508 508 -508 160 0 c89 -1 163 1 165 4 1
3 -299 308 -669 676 l-671 670 -112 -113z"/>
</g>
</svg>
